<mxfile host="app.diagrams.net" modified="2022-08-21T08:27:53.084Z" agent="5.0 (Macintosh; Intel Mac OS X 10_15_6) AppleWebKit/537.36 (KHTML, like Gecko) Chrome/75.0.3770.80 Safari/537.36" etag="Mgl4avMst1wNfyZMcNZw" version="20.2.3" type="github">
  <diagram id="Om8DZuo_f3Bmvb0uCep5" name="第 1 页">
    <mxGraphModel dx="1298" dy="766" grid="1" gridSize="10" guides="1" tooltips="1" connect="1" arrows="1" fold="1" page="1" pageScale="1" pageWidth="827" pageHeight="1169" math="0" shadow="0">
      <root>
        <mxCell id="0" />
        <mxCell id="1" parent="0" />
        <mxCell id="kSfDIbqPuxOACISlFR3m-6" value="" style="sketch=0;aspect=fixed;html=1;points=[];align=center;image;fontSize=12;image=img/lib/mscae/Kubernetes.svg;fillColor=#E6D0DE;" vertex="1" parent="1">
          <mxGeometry x="110" y="760" width="50" height="48" as="geometry" />
        </mxCell>
        <mxCell id="kSfDIbqPuxOACISlFR3m-11" value="" style="whiteSpace=wrap;html=1;aspect=fixed;fillColor=#FFFFFF;" vertex="1" parent="1">
          <mxGeometry x="40" y="150" width="670" height="670" as="geometry" />
        </mxCell>
        <mxCell id="kSfDIbqPuxOACISlFR3m-20" value="" style="verticalLabelPosition=bottom;verticalAlign=top;html=1;shape=mxgraph.basic.rect;fillColor2=none;strokeWidth=1;size=20;indent=5;fillColor=#E6D0DE;" vertex="1" parent="1">
          <mxGeometry x="80" y="330" width="280" height="290" as="geometry" />
        </mxCell>
        <mxCell id="kSfDIbqPuxOACISlFR3m-21" value="&lt;b&gt;node-1&lt;/b&gt;" style="text;html=1;align=center;verticalAlign=middle;resizable=0;points=[];autosize=1;strokeColor=none;fillColor=none;" vertex="1" parent="1">
          <mxGeometry x="90" y="345" width="60" height="30" as="geometry" />
        </mxCell>
        <mxCell id="kSfDIbqPuxOACISlFR3m-23" value="&lt;b&gt;hello-server&lt;/b&gt;&lt;br&gt;&lt;div class=&quot;kd-property-value&quot;&gt;&lt;div value=&quot;&quot;&gt;192.168.36.90:&lt;font color=&quot;#ffb570&quot;&gt;9000&lt;/font&gt;&lt;/div&gt;&lt;/div&gt;" style="rounded=1;whiteSpace=wrap;html=1;fillColor=#D4E1F5;" vertex="1" parent="1">
          <mxGeometry x="250" y="900" width="120" height="60" as="geometry" />
        </mxCell>
        <mxCell id="kSfDIbqPuxOACISlFR3m-24" value="&lt;b&gt;hello-server&lt;/b&gt;&lt;br&gt;&lt;div class=&quot;kd-property-value&quot;&gt;&lt;div value=&quot;&quot;&gt;&lt;span style=&quot;background-color: initial;&quot;&gt;192.168.36.89&lt;/span&gt;:&lt;font color=&quot;#ffb570&quot;&gt;9000&lt;/font&gt;&lt;/div&gt;&lt;/div&gt;" style="rounded=1;whiteSpace=wrap;html=1;fillColor=#D4E1F5;" vertex="1" parent="1">
          <mxGeometry x="75" y="900" width="120" height="60" as="geometry" />
        </mxCell>
        <mxCell id="kSfDIbqPuxOACISlFR3m-25" value="&lt;b&gt;nginx-demo&lt;br&gt;&lt;/b&gt;&lt;div class=&quot;kd-property-value&quot;&gt;&lt;div value=&quot;&quot;&gt;192.168.169.151:&lt;font color=&quot;#ffb570&quot;&gt;80&lt;/font&gt;&lt;/div&gt;&lt;/div&gt;" style="rounded=1;whiteSpace=wrap;html=1;fillColor=#D4E1F5;" vertex="1" parent="1">
          <mxGeometry x="440" y="900" width="120" height="60" as="geometry" />
        </mxCell>
        <mxCell id="kSfDIbqPuxOACISlFR3m-26" value="&lt;b&gt;nginx-demo&lt;br&gt;&lt;/b&gt;&lt;div class=&quot;kd-property-value&quot;&gt;&lt;div value=&quot;&quot;&gt;192.168.169.152:&lt;font color=&quot;#ffb570&quot;&gt;80&lt;/font&gt;&lt;/div&gt;&lt;/div&gt;" style="rounded=1;whiteSpace=wrap;html=1;fillColor=#D4E1F5;" vertex="1" parent="1">
          <mxGeometry x="620" y="900" width="120" height="60" as="geometry" />
        </mxCell>
        <mxCell id="kSfDIbqPuxOACISlFR3m-33" value="" style="rounded=0;whiteSpace=wrap;html=1;labelBackgroundColor=#FFFFFF;fontFamily=Helvetica;fontSize=12;fillColor=#ffcc99;strokeColor=none;fillStyle=auto;glass=0;" vertex="1" parent="1">
          <mxGeometry x="130" y="1030" width="120" height="60" as="geometry" />
        </mxCell>
      </root>
    </mxGraphModel>
  </diagram>
</mxfile>
